<svg xmlns="http://www.w3.org/2000/svg" viewBox="0 0 128 128" role="img" aria-label="链上刷量统计机器人图标">
  <defs>
    <linearGradient id="bg" x1="0" y1="0" x2="1" y2="1">
      <stop offset="0%" stop-color="#0f766e"/>
      <stop offset="100%" stop-color="#0ea5a7"/>
    </linearGradient>
    <linearGradient id="shine" x1="0" y1="0" x2="1" y2="1">
      <stop offset="0%" stop-color="#99f6e4" stop-opacity="0.9"/>
      <stop offset="100%" stop-color="#ffffff" stop-opacity="0.2"/>
    </linearGradient>
  </defs>

  <rect x="8" y="8" width="112" height="112" rx="24" fill="url(#bg)"/>
  <path d="M18 34c10-16 28-24 46-20 5 1 11 3 16 6" fill="none" stroke="url(#shine)" stroke-width="6" stroke-linecap="round"/>

  <rect x="26" y="70" width="14" height="26" rx="3" fill="#e6fffb"/>
  <rect x="46" y="60" width="14" height="36" rx="3" fill="#ccfbf1"/>
  <rect x="66" y="50" width="14" height="46" rx="3" fill="#99f6e4"/>
  <rect x="86" y="40" width="14" height="56" rx="3" fill="#5eead4"/>

  <g transform="translate(18 18)">
    <rect x="0" y="0" width="40" height="18" rx="9" fill="#062f2b" opacity="0.95"/>
    <rect x="6" y="4.5" width="10" height="9" rx="4.5" fill="#e6fffb"/>
    <rect x="24" y="4.5" width="10" height="9" rx="4.5" fill="#99f6e4"/>
    <path d="M16 9h8" stroke="#38b2ac" stroke-width="2" stroke-linecap="round"/>
  </g>

  <circle cx="101" cy="27" r="5" fill="#fef08a"/>
</svg>
